<?xml version="1.0" encoding="utf-8"?>
<!-- Generator: Adobe Illustrator 17.0.0, SVG Export Plug-In . SVG Version: 6.00 Build 0)  -->
<!DOCTYPE svg PUBLIC "-//W3C//DTD SVG 1.1//EN" "http://www.w3.org/Graphics/SVG/1.1/DTD/svg11.dtd">
<svg version="1.1" id="Слой_1" xmlns="http://www.w3.org/2000/svg" xmlns:xlink="http://www.w3.org/1999/xlink" x="0px" y="0px"
	 width="21.469px" height="15.998px" viewBox="0 0 21.469 15.998" enable-background="new 0 0 21.469 15.998" xml:space="preserve">
<path fill-rule="evenodd" clip-rule="evenodd" d="M9.998,2.082h1v8.476h-1V2.082"/>
<path fill-rule="evenodd" clip-rule="evenodd" d="M3,0.682l0.994-0.37l3.144,10.521l-0.994,0.37L3,0.682"/>
<path fill-rule="evenodd" clip-rule="evenodd" d="M13.533,2.082l0.95,0.254l-1.958,8.378l-0.95-0.254L13.533,2.082"/>
<path fill-rule="evenodd" clip-rule="evenodd" d="M16.483,2.657l0.879,0.288l-2.774,8.22l-0.879-0.288L16.483,2.657"/>
<path fill-rule="evenodd" clip-rule="evenodd" d="M0,0h3.981v1H0V0z"/>
<path fill-rule="evenodd" clip-rule="evenodd" d="M7.002,10.192l0.068,1.012l-3.006,2.795l-0.068-0.945L7.002,10.192"/>
<path fill-rule="evenodd" clip-rule="evenodd" d="M9.002,10.192l0.068,1.012l-3.006,2.795l-0.068-0.945L9.002,10.192"/>
<path fill-rule="evenodd" clip-rule="evenodd" d="M6.514,2.334l0.97-0.252l2,8.322l-0.97,0.252L6.514,2.334"/>
<path fill-rule="evenodd" clip-rule="evenodd" d="M4.075,2l13.288,0.016v1L4.075,3V2z"/>
<path fill-rule="evenodd" clip-rule="evenodd" d="M6.514,10.192h8.077v1H6.514V10.192z"/>
<path fill-rule="evenodd" clip-rule="evenodd" d="M5.34,5.999h10.688v1H5.34V5.999z"/>
<path fill-rule="evenodd" clip-rule="evenodd" d="M4.674,12.998h9.036v1H4.674V12.998z"/>
<path fill-rule="evenodd" clip-rule="evenodd" d="M4.499,12.998c0.828,0,1.5,0.672,1.5,1.5c0,0.828-0.671,1.5-1.5,1.5
	c-0.828,0-1.5-0.672-1.5-1.5C3,13.67,3.671,12.998,4.499,12.998z"/>
<path fill-rule="evenodd" clip-rule="evenodd" d="M13.498,12.998c0.828,0,1.5,0.672,1.5,1.5c0,0.828-0.672,1.5-1.5,1.5
	c-0.828,0-1.5-0.672-1.5-1.5C11.998,13.67,12.67,12.998,13.498,12.998z"/>
</svg>
