<?xml version="1.0" encoding="utf-8"?>
<!-- Generator: Adobe Illustrator 18.1.0, SVG Export Plug-In . SVG Version: 6.00 Build 0)  -->
<svg version="1.1" id="Слой_1" xmlns="http://www.w3.org/2000/svg" xmlns:xlink="http://www.w3.org/1999/xlink" x="0px" y="0px"
	 viewBox="0 0 197.9 54.1" enable-background="new 0 0 197.9 54.1" xml:space="preserve">
<rect x="204.9" y="62.2" display="none" fill-rule="evenodd" clip-rule="evenodd" fill="#1A4697" width="205.2" height="51"/>
<rect x="204.9" y="130" display="none" fill-rule="evenodd" clip-rule="evenodd" fill="#ED6D05" width="205.2" height="51"/>
<text transform="matrix(1 0 0 1 421.1221 69.839)" display="none"><tspan x="0" y="0" display="inline" font-family="'ArialMT'" font-size="10.0001">PANTONE 293C</tspan><tspan x="0" y="10" display="inline" font-family="'ArialMT'" font-size="10.0001">С: 100%</tspan><tspan x="0" y="20" display="inline" font-family="'ArialMT'" font-size="10.0001">M</tspan><tspan x="8.3" y="20" display="inline" font-family="'ArialMT'" font-size="10.0001">: 57%</tspan><tspan x="0" y="30" display="inline" font-family="'ArialMT'" font-size="10.0001">Y</tspan><tspan x="6.7" y="30" display="inline" font-family="'ArialMT'" font-size="10.0001">: 0%</tspan><tspan x="0" y="40" display="inline" font-family="'ArialMT'" font-size="10.0001">К: 2%</tspan></text>
<text transform="matrix(1 0 0 1 421.1221 137.6793)" display="none"><tspan x="0" y="0" display="inline" font-family="'ArialMT'" font-size="10.0001">PANTONE </tspan><tspan x="51.1" y="0" display="inline" font-family="'ArialMT'" font-size="10.0001">Orange </tspan><tspan x="87.3" y="0" display="inline" font-family="'ArialMT'" font-size="10.0001">021C</tspan><tspan x="0" y="10" display="inline" font-family="'ArialMT'" font-size="10.0001">C: 0%</tspan><tspan x="0" y="20" display="inline" font-family="'ArialMT'" font-size="10.0001">M: 53%</tspan><tspan x="0" y="30" display="inline" font-family="'ArialMT'" font-size="10.0001">Y: 100%</tspan><tspan x="0" y="40" display="inline" font-family="'ArialMT'" font-size="10.0001">K : 0%</tspan></text>
<text transform="matrix(1 0 0 1 418.0859 42.5211)" display="none" font-family="'Arial-BoldMT'" font-size="14">Formula color logo:</text>
<path display="none" fill-rule="evenodd" clip-rule="evenodd" d="M97.1,172.2c4.8-8.8,9.7-17.6,14.5-26.4
	c4.8-8.8,9.7-17.6,14.5-26.4c-2.2,12.4-4.3,21.3-6.5,27.9c-2.2,6.6-4.6,10.8-7.2,13.8C104.4,170.2,99.8,170.6,97.1,172.2L97.1,172.2
	z M45.2,152.4c0.4-1.6,0.2-2.8-0.6-3.4c-0.8-0.6-2.4-0.9-4.7-0.9c-0.7,2.9-1.4,5.8-2.2,8.7c2.4,0,4.2-0.3,5.3-1
	C44.1,155.1,44.9,154,45.2,152.4L45.2,152.4z M160.4,160.6c-2.3,0-4.6,0-6.9,0c1.3-5.4,2.7-10.9,4-16.3c2.3,0,4.6,0,6.9,0
	c-0.5,1.9-1,3.8-1.4,5.7c2.2,0,4.3,0,6.5,0c0.5-1.9,0.9-3.8,1.4-5.7c2.3,0,4.6,0,6.9,0c-1.4,5.4-2.7,10.9-4,16.3c-2.3,0-4.6,0-6.9,0
	c0.5-2,1-4.1,1.5-6.1c-2.2,0-4.4,0-6.5,0C161.4,156.5,160.9,158.5,160.4,160.6L160.4,160.6z M140.2,156.8c0.9,0,1.7-0.1,2.3-0.3
	c0.6-0.2,0.9-0.5,1-0.9c0.2-0.6-0.8-1.1-2.9-1.5c-2.9-0.6-4.8-1-5.7-1.5c-2-0.9-2.7-2.2-2.3-4c0.4-1.7,1.6-3,3.6-3.9
	c2-0.9,4.4-1.4,7.3-1.4c2.9,0,5,0.5,6.4,1.5c1.2,0.9,1.8,2.1,1.7,3.7c-2.3,0-4.6,0-6.9,0c0-0.5-0.4-0.9-1-1.1
	c-0.5-0.2-1-0.3-1.5-0.3c-1.5,0-2.3,0.3-2.5,0.9c-0.2,0.6,0.8,1.1,2.9,1.5c3,0.6,4.9,1.1,5.7,1.5c2,0.9,2.7,2.2,2.3,3.9
	c-0.5,1.8-1.8,3.2-4,4.2c-2.1,0.9-4.7,1.4-7.8,1.4c-2.9,0-5.1-0.5-6.6-1.6c-1.5-1.1-2.1-2.3-1.7-3.9c2.3,0,4.6,0,6.9,0
	c0.1,0.5,0.5,1,1.2,1.3C139.1,156.7,139.7,156.8,140.2,156.8L140.2,156.8z M126.3,160.6c1.3-5.4,2.6-10.9,3.8-16.3
	c-2.2,0-4.4,0-6.5,0c-1.3,5.4-2.6,10.9-3.9,16.3C121.9,160.6,124.1,160.6,126.3,160.6L126.3,160.6z M65.3,155c-0.2-2-0.5-4-0.7-6
	c-1.2,2-2.4,4-3.6,6C62.3,155,63.8,155,65.3,155L65.3,155z M108.2,149c-0.9-1.6-1.8-3.2-2.7-4.7c-2.2,0-4.4,0-6.6,0
	c2.3,3.4,4.5,6.8,6.8,10.2C106.5,152.6,107.3,150.8,108.2,149L108.2,149z M86.4,148c-0.3,1.1-0.6,2.2-0.8,3.3c0.9,0,1.8,0,2.8,0
	c1.1,0,2-0.1,2.6-0.4c0.6-0.2,1-0.6,1.1-1.2c0.1-0.5,0-1-0.5-1.3c-0.5-0.3-1.1-0.4-1.9-0.4C88.5,148,87.4,148,86.4,148L86.4,148z
	 M186.3,135.9c0.8,0,1.6,0.2,2.3,0.5c0.8,0.4,1.3,0.9,1.8,1.6c0.4,0.7,0.7,1.4,0.7,2.1c0,0.7-0.2,1.4-0.7,2.1
	c-0.4,0.7-1,1.2-1.7,1.6c-0.8,0.4-1.5,0.6-2.3,0.6c-0.8,0-1.6-0.2-2.3-0.6c-0.7-0.4-1.3-0.9-1.7-1.6c-0.4-0.7-0.6-1.4-0.6-2.1
	c0-0.7,0.2-1.4,0.6-2.1c0.4-0.7,1-1.2,1.8-1.6C184.7,136.1,185.5,135.9,186.3,135.9L186.3,135.9z M12.6,137.5
	c8,0,14.5,6.5,14.5,14.5c0,8-6.5,14.5-14.5,14.5c-3.9,0-7.5-1.6-10.1-4.1h4.8c3.3,0,6.4-0.7,9.3-2c3.1-1.5,5.5-3.5,7.1-6.2
	c1.2-2,1.9-3.9,1.9-5.7c0-2.3-1-4.1-2.9-5.3c-1.6-1-3.7-1.6-6.1-1.6l-14.2,0.1l-0.1,0.1C4.9,139.1,8.6,137.5,12.6,137.5L12.6,137.5z
	 M2.5,162.3l5.3-15.1H13L8.5,160c1.9,0,3.8-0.6,5.7-1.8c1.9-1.2,3.3-2.7,4.1-4.4c0.8-1.5,1.2-2.8,1.2-3.9c0-1.7-0.5-2.9-1.4-3.6
	c-0.8-0.7-2.1-1-3.9-1c-4.8,0-9.8,0-14.5,0c-1,2-1.6,4.3-1.6,6.7C-1.9,156-0.2,159.7,2.5,162.3L2.5,162.3z M-0.2,145.2
	c0.4-0.7,0.8-1.4,1.3-2C0.6,143.8,0.2,144.5-0.2,145.2L-0.2,145.2z M186.3,136.6c-0.7,0-1.3,0.2-1.9,0.5c-0.6,0.3-1.1,0.7-1.5,1.3
	c-0.4,0.6-0.5,1.1-0.5,1.8c0,0.6,0.2,1.2,0.5,1.7c0.3,0.6,0.8,1,1.5,1.3c0.6,0.3,1.3,0.5,2,0.5c0.7,0,1.3-0.2,2-0.5
	c0.6-0.3,1.1-0.7,1.5-1.3c0.3-0.5,0.5-1.1,0.5-1.7c0-0.6-0.2-1.2-0.5-1.8c-0.3-0.6-0.8-1-1.5-1.3C187.6,136.8,187,136.6,186.3,136.6
	L186.3,136.6z M184.2,142.4c0.3,0,0.6,0,0.8,0c0-0.6,0-1.3,0-1.9c0.1,0,0.3,0,0.5,0c0.3,0,0.5,0.1,0.7,0.2c0.2,0.1,0.5,0.5,0.9,1
	c0.1,0.2,0.3,0.5,0.4,0.7c0.3,0,0.7,0,1,0c-0.2-0.3-0.4-0.6-0.6-0.9c-0.3-0.4-0.5-0.7-0.8-0.9c-0.1-0.1-0.2-0.2-0.4-0.2
	c0.4,0,0.8-0.2,1.1-0.4c0.3-0.2,0.4-0.5,0.4-0.9c0-0.2-0.1-0.5-0.2-0.7c-0.1-0.2-0.4-0.4-0.6-0.4c-0.3-0.1-0.7-0.1-1.3-0.1
	c-0.6,0-1.2,0-1.7,0C184.2,139.4,184.2,140.9,184.2,142.4L184.2,142.4z M185.1,139.9c0.3,0,0.7,0,1,0c0.5,0,0.8-0.1,1-0.2
	c0.2-0.1,0.3-0.3,0.3-0.5c0-0.1,0-0.3-0.1-0.4c-0.1-0.1-0.2-0.2-0.3-0.2c-0.1-0.1-0.4-0.1-0.8-0.1c-0.3,0-0.6,0-0.9,0
	C185.1,139,185.1,139.4,185.1,139.9L185.1,139.9z M86.8,154.9c1.6,0,2.6,0.2,3,0.6c0.3,0.4,0.4,1.1,0.1,2.2
	c-0.4,1.4-0.5,2.4-0.4,2.9c2.3,0,4.7,0,7.1,0c0-0.2,0.1-0.3,0.1-0.5c-0.4,0-0.6-0.3-0.5-1c0.1-0.6,0.3-1.2,0.5-1.8
	c0.4-1.5,0.3-2.6-0.2-3.2c-0.3-0.4-1.1-0.8-2.3-1.2c1.1-0.2,2.1-0.9,2.9-1.5c2.1-2.6,0.2-6.6-3.6-7c-0.9-0.1-1.8-0.1-2.9-0.1
	c-3.4,0-6.7,0-10.1,0c-1.4,5.4-2.7,10.9-4.1,16.3c2.3,0,4.6,0,7,0c0.5-1.9,0.9-3.8,1.4-5.7C85.3,154.9,86.1,154.9,86.8,154.9
	L86.8,154.9z M57.4,160.6c-2.3,0-4.5,0-6.8,0c3.9-5.4,7.7-10.9,11.6-16.4c2.3,0,4.7,0,7,0c1.2,5.5,2.3,10.9,3.5,16.3
	c-2.3,0-4.6,0-6.9,0c-0.1-0.7-0.2-1.4-0.3-2.2c-2.3,0-4.6,0-6.9,0C58.3,159.2,57.8,159.9,57.4,160.6L57.4,160.6z M39,160.6
	c-3,0-6,0-8.9,0c1.3-5.4,2.7-10.9,4-16.4c3,0,6.1,0,9.1,0c3.5,0,6,0.6,7.5,1.9c1.6,1.3,2.1,3.3,1.5,6c-0.7,3-2.3,5.2-4.6,6.6
	C45.3,159.9,42.5,160.6,39,160.6z"/>
<g display="none">
	<path display="inline" fill-rule="evenodd" clip-rule="evenodd" d="M99.1,212.5c3.6-5,7.1-10.1,10.7-15.1c3.6-5,7.2-10.1,10.7-15.1
		c-0.6,5.8-1.5,10.2-2.9,13.6c-1.3,3.4-3.1,5.8-5.2,7.8C105.9,209.7,101.4,211.1,99.1,212.5z"/>
	<path display="inline" fill-rule="evenodd" clip-rule="evenodd" d="M46.5,197.9c0.4-1.6,0.2-2.8-0.6-3.4c-0.8-0.6-2.4-0.9-4.7-0.9
		c-0.7,2.9-1.4,5.8-2.2,8.7c2.4,0,4.2-0.3,5.3-1C45.4,200.6,46.1,199.5,46.5,197.9L46.5,197.9z M40.3,206.1c-3,0-6,0-8.9,0
		c1.3-5.4,2.7-10.9,4-16.4c3,0,6.1,0,9.1,0c3.5,0,6,0.6,7.5,1.9c1.6,1.3,2.1,3.3,1.5,6c-0.7,3-2.3,5.2-4.6,6.6
		C46.6,205.5,43.8,206.1,40.3,206.1z"/>
	<path display="inline" fill-rule="evenodd" clip-rule="evenodd" d="M160.6,206.1c-2.3,0-4.6,0-6.9,0c1.3-5.4,2.7-10.9,4-16.3
		c2.3,0,4.6,0,6.9,0c-0.5,1.9-1,3.8-1.4,5.7c2.2,0,4.3,0,6.5,0c0.5-1.9,0.9-3.8,1.4-5.7c2.3,0,4.6,0,6.9,0c-1.4,5.4-2.7,10.9-4,16.3
		c-2.3,0-4.6,0-6.9,0c0.5-2,1-4.1,1.5-6.1c-2.2,0-4.4,0-6.5,0C161.6,202,161.1,204,160.6,206.1z"/>
	<path display="inline" fill-rule="evenodd" clip-rule="evenodd" d="M140.3,202.3c0.9,0,1.7-0.1,2.3-0.3c0.6-0.2,0.9-0.5,1-0.9
		c0.2-0.6-0.8-1.1-2.9-1.5c-2.9-0.6-4.8-1-5.7-1.5c-2-0.9-2.7-2.2-2.3-4c0.4-1.7,1.6-3,3.6-3.9c2-0.9,4.4-1.4,7.3-1.4
		c2.9,0,5,0.5,6.4,1.5c1.2,0.9,1.8,2.1,1.7,3.7c-2.3,0-4.6,0-6.9,0c0-0.5-0.4-0.9-1-1.1c-0.5-0.2-1-0.3-1.5-0.3
		c-1.5,0-2.3,0.3-2.5,0.9c-0.2,0.6,0.8,1.1,2.9,1.5c3,0.6,4.9,1.1,5.7,1.5c2,0.9,2.7,2.2,2.3,3.9c-0.5,1.8-1.8,3.2-4,4.2
		c-2.1,0.9-4.7,1.4-7.8,1.4c-2.9,0-5.1-0.5-6.6-1.6c-1.5-1.1-2.1-2.3-1.7-3.9c2.3,0,4.6,0,6.9,0c0.1,0.5,0.5,1,1.2,1.3
		C139.3,202.2,139.8,202.3,140.3,202.3z"/>
	<path display="inline" fill-rule="evenodd" clip-rule="evenodd" d="M126.4,206.1c-2.2,0-4.4,0-6.6,0c1.3-5.4,2.6-10.9,3.9-16.3
		c2.2,0,4.4,0,6.5,0C129,195.2,127.7,200.6,126.4,206.1z"/>
	<path display="inline" fill-rule="evenodd" clip-rule="evenodd" d="M66.5,200.6c-0.2-2-0.5-4-0.7-6c-1.2,2-2.4,4-3.6,6
		C63.6,200.6,65.1,200.6,66.5,200.6L66.5,200.6z M58.7,206.1c-2.3,0-4.5,0-6.8,0c3.9-5.4,7.7-10.9,11.6-16.4c2.3,0,4.7,0,7,0
		c1.2,5.5,2.3,10.9,3.5,16.3c-2.3,0-4.6,0-6.9,0c-0.1-0.7-0.2-1.4-0.3-2.2c-2.3,0-4.6,0-6.9,0C59.6,204.7,59.1,205.4,58.7,206.1z"/>
	<path display="inline" fill-rule="evenodd" clip-rule="evenodd" d="M109.5,194.5c-0.9-1.6-1.8-3.2-2.7-4.7c-2.2,0-4.4,0-6.6,0
		c2.3,3.4,4.5,6.8,6.8,10.2C107.8,198.2,108.6,196.3,109.5,194.5z"/>
	<path display="inline" fill-rule="evenodd" clip-rule="evenodd" d="M87.7,193.6c-0.3,1.1-0.6,2.2-0.8,3.3c0.9,0,1.8,0,2.8,0
		c1.1,0,2-0.1,2.6-0.4c0.6-0.2,1-0.6,1.1-1.2c0.1-0.5,0-1-0.5-1.3c-0.5-0.3-1.1-0.4-1.9-0.4C89.8,193.6,88.7,193.6,87.7,193.6
		L87.7,193.6z M88.1,200.4c-0.7,0-1.4,0-2.1,0c-0.5,1.9-1,3.8-1.4,5.7c-2.3,0-4.7,0-7,0c1.4-5.4,2.7-10.9,4.1-16.3
		c3.3,0,6.7,0,10.1,0c1.1,0,2,0,2.9,0.1c3.9,0.4,5.7,4.5,3.6,7c-0.8,0.6-1.7,1.3-2.9,1.5c1.2,0.4,2,0.8,2.3,1.2
		c0.5,0.6,0.6,1.7,0.2,3.2c-0.1,0.6-0.3,1.2-0.5,1.8c-0.1,0.7,0,1,0.5,1c0,0.2-0.1,0.3-0.1,0.5c-2.4,0-4.7,0-7.1,0
		c-0.1-0.5,0-1.4,0.4-2.9c0.3-1.1,0.3-1.9-0.1-2.2C90.7,200.6,89.7,200.4,88.1,200.4z"/>
	<path display="inline" fill-rule="evenodd" clip-rule="evenodd" d="M186.4,181.4c0.8,0,1.6,0.2,2.3,0.5c0.8,0.4,1.3,0.9,1.8,1.6
		c0.4,0.7,0.7,1.4,0.7,2.1c0,0.7-0.2,1.4-0.7,2.1c-0.4,0.7-1,1.2-1.7,1.6c-0.8,0.4-1.5,0.6-2.3,0.6c-0.8,0-1.6-0.2-2.3-0.6
		c-0.7-0.4-1.3-0.9-1.7-1.6c-0.4-0.7-0.6-1.4-0.6-2.1c0-0.7,0.2-1.4,0.6-2.1c0.4-0.7,1-1.2,1.8-1.6
		C184.9,181.6,185.7,181.4,186.4,181.4L186.4,181.4z M186.4,182.1c-0.7,0-1.3,0.2-1.9,0.5c-0.6,0.3-1.1,0.7-1.5,1.3
		c-0.4,0.6-0.5,1.1-0.5,1.8c0,0.6,0.2,1.2,0.5,1.7c0.3,0.6,0.8,1,1.5,1.3c0.6,0.3,1.3,0.5,2,0.5c0.7,0,1.3-0.2,2-0.5
		c0.6-0.3,1.1-0.7,1.5-1.3c0.3-0.5,0.5-1.1,0.5-1.7c0-0.6-0.2-1.2-0.5-1.8c-0.3-0.6-0.8-1-1.5-1.3
		C187.8,182.3,187.1,182.1,186.4,182.1L186.4,182.1z M184.4,187.9c0.3,0,0.6,0,0.8,0c0-0.6,0-1.3,0-1.9c0.1,0,0.3,0,0.5,0
		c0.3,0,0.5,0.1,0.7,0.2c0.2,0.1,0.5,0.5,0.9,1c0.1,0.2,0.3,0.5,0.4,0.7c0.3,0,0.7,0,1,0c-0.2-0.3-0.4-0.6-0.6-0.9
		c-0.3-0.4-0.5-0.7-0.8-0.9c-0.1-0.1-0.2-0.2-0.4-0.2c0.4,0,0.8-0.2,1.1-0.4c0.3-0.2,0.4-0.5,0.4-0.9c0-0.2-0.1-0.5-0.2-0.7
		c-0.1-0.2-0.4-0.4-0.6-0.4c-0.3-0.1-0.7-0.1-1.3-0.1c-0.6,0-1.2,0-1.7,0C184.4,184.9,184.4,186.4,184.4,187.9L184.4,187.9z
		 M185.2,185.4c0.3,0,0.7,0,1,0c0.5,0,0.8-0.1,1-0.2c0.2-0.1,0.3-0.3,0.3-0.5c0-0.1,0-0.3-0.1-0.4c-0.1-0.1-0.2-0.2-0.3-0.2
		c-0.1-0.1-0.4-0.1-0.8-0.1c-0.3,0-0.6,0-0.9,0C185.2,184.5,185.2,184.9,185.2,185.4z"/>
	<path display="inline" fill-rule="evenodd" clip-rule="evenodd" d="M13.9,212c8,0,14.5-6.5,14.5-14.5S21.9,183,13.9,183
		s-14.5,6.5-14.5,14.5S5.9,212,13.9,212z"/>
	<path display="inline" fill-rule="evenodd" clip-rule="evenodd" fill="#FFFFFF" d="M26.8,194c0,1.8-0.6,3.7-1.9,5.7
		c-1.6,2.6-4,4.7-7.1,6.2c-2.9,1.3-6,2-9.3,2H3.7L9,192.7h5.3l-4.5,12.8c1.9,0,3.8-0.6,5.7-1.8c1.9-1.2,3.3-2.7,4.1-4.4
		c0.8-1.5,1.2-2.8,1.2-3.9c0-1.7-0.5-2.9-1.4-3.6c-0.8-0.7-2.1-1-3.9-1c-4.8,0-9.8,0-14.5,0c0.7-1.3,1.6-2.6,2.6-3.6l14.2-0.1
		c2.4,0,4.5,0.5,6.1,1.6C25.9,189.9,26.8,191.7,26.8,194z"/>
</g>
<g display="none">
	<g display="inline">
		<path fill-rule="evenodd" clip-rule="evenodd" fill="#ED6D05" d="M100.7,105.6c5-9,9.9-18,14.9-27c5-9,9.9-18,14.9-27.1
			c-2.2,12.7-4.4,21.8-6.7,28.6c-2.3,6.8-4.7,11.1-7.4,14.2C108.2,103.6,103.4,104,100.7,105.6z"/>
		<g>
			<path fill-rule="evenodd" clip-rule="evenodd" fill="#1A4697" d="M47.5,85.3c0.4-1.7,0.2-2.9-0.6-3.5c-0.8-0.6-2.4-0.9-4.8-0.9
				c-0.7,3-1.5,6-2.2,8.9c2.5,0,4.3-0.3,5.4-1C46.3,88.1,47.1,86.9,47.5,85.3L47.5,85.3z M41.1,93.7c-3.1,0-6.1,0-9.2,0
				c1.4-5.6,2.7-11.2,4.1-16.8c3.1,0,6.2,0,9.4,0c3.6,0,6.1,0.7,7.7,1.9c1.7,1.4,2.2,3.4,1.5,6.1c-0.8,3-2.3,5.3-4.7,6.7
				C47.6,93,44.7,93.7,41.1,93.7z"/>
			<path fill-rule="evenodd" clip-rule="evenodd" fill="#1A4697" d="M165.6,93.7c-2.4,0-4.7,0-7.1,0c1.4-5.6,2.8-11.2,4.1-16.8
				c2.4,0,4.7,0,7.1,0c-0.5,2-1,3.9-1.5,5.9c2.2,0,4.4,0,6.7,0c0.5-2,1-3.9,1.5-5.9c2.3,0,4.7,0,7.1,0c-1.4,5.6-2.8,11.2-4.1,16.7
				c-2.4,0-4.7,0-7.1,0c0.5-2.1,1-4.2,1.6-6.3c-2.3,0-4.5,0-6.7,0C166.6,89.5,166.1,91.6,165.6,93.7z"/>
			<path fill-rule="evenodd" clip-rule="evenodd" fill="#1A4697" d="M144.8,89.8c1,0,1.7-0.1,2.3-0.3c0.6-0.2,0.9-0.5,1.1-0.9
				c0.2-0.6-0.8-1.1-2.9-1.6c-3-0.6-4.9-1.1-5.9-1.5c-2-0.9-2.8-2.3-2.3-4.1c0.5-1.7,1.7-3,3.7-4c2-0.9,4.5-1.4,7.4-1.4
				c3,0,5.2,0.5,6.6,1.5c1.3,0.9,1.8,2.2,1.7,3.8c-2.3,0-4.7,0-7,0c0-0.5-0.4-0.9-1-1.2c-0.5-0.2-1-0.3-1.6-0.3
				c-1.5,0-2.4,0.3-2.6,1c-0.2,0.6,0.8,1.1,2.9,1.6c3,0.6,5,1.1,5.9,1.5c2,0.9,2.8,2.2,2.4,4c-0.5,1.9-1.9,3.3-4.1,4.3
				c-2.1,1-4.8,1.4-8,1.4c-2.9,0-5.2-0.5-6.8-1.6c-1.6-1.1-2.2-2.4-1.8-4c2.4,0,4.7,0,7.1,0c0.1,0.6,0.5,1,1.2,1.4
				C143.8,89.7,144.3,89.8,144.8,89.8z"/>
			<path fill-rule="evenodd" clip-rule="evenodd" fill="#1A4697" d="M130.6,93.7c-2.2,0-4.5,0-6.7,0c1.3-5.6,2.6-11.2,4-16.8
				c2.2,0,4.5,0,6.7,0C133.2,82.5,131.9,88.1,130.6,93.7z"/>
			<path fill-rule="evenodd" clip-rule="evenodd" fill="#1A4697" d="M68,88c-0.3-2.1-0.5-4.1-0.8-6.2C66,83.9,64.8,86,63.5,88
				C65,88,66.5,88,68,88L68,88z M60,93.7c-2.3,0-4.6,0-6.9,0c4-5.6,7.9-11.2,11.9-16.8c2.4,0,4.8,0,7.2,0c1.2,5.6,2.4,11.2,3.6,16.8
				c-2.4,0-4.7,0-7.1,0c-0.1-0.7-0.2-1.5-0.3-2.2c-2.4,0-4.7,0-7.1,0C60.9,92.2,60.4,93,60,93.7z"/>
			<path fill-rule="evenodd" clip-rule="evenodd" fill="#1A4697" d="M112,81.8c-0.9-1.6-1.8-3.2-2.8-4.9c-2.3,0-4.5,0-6.8,0
				c2.3,3.5,4.6,7,6.9,10.5C110.3,85.6,111.2,83.7,112,81.8z"/>
			<path fill-rule="evenodd" clip-rule="evenodd" fill="#1A4697" d="M89.7,80.9c-0.3,1.1-0.6,2.2-0.8,3.3c0.9,0,1.9,0,2.8,0
				c1.1,0,2-0.1,2.6-0.4c0.6-0.2,1-0.7,1.2-1.2c0.1-0.6,0-1-0.5-1.3c-0.5-0.3-1.1-0.5-2-0.5C91.9,80.9,90.8,80.9,89.7,80.9
				L89.7,80.9z M90.1,87.9c-0.7,0-1.5,0-2.2,0c-0.5,1.9-1,3.9-1.5,5.8c-2.4,0-4.8,0-7.2,0c1.4-5.6,2.8-11.2,4.2-16.8
				c3.4,0,6.9,0,10.3,0c1.1,0,2.1,0,3,0.1c4,0.4,5.9,4.6,3.7,7.2c-0.8,0.6-1.8,1.3-2.9,1.6c1.3,0.4,2.1,0.8,2.4,1.2
				c0.5,0.6,0.6,1.7,0.2,3.3c-0.2,0.6-0.3,1.3-0.5,1.9c-0.1,0.7,0,1.1,0.5,1.1c-0.1,0.2-0.1,0.3-0.1,0.5c-2.4,0-4.8,0-7.3,0
				c-0.1-0.5,0-1.5,0.4-2.9c0.3-1.2,0.3-1.9-0.1-2.3C92.7,88.1,91.7,87.9,90.1,87.9z"/>
		</g>
		<path fill-rule="evenodd" clip-rule="evenodd" fill="#1A4697" d="M192.1,68.4c0.8,0,1.6,0.2,2.4,0.6c0.8,0.4,1.4,0.9,1.8,1.6
			c0.4,0.7,0.7,1.4,0.7,2.2c0,0.7-0.2,1.5-0.7,2.1c-0.4,0.7-1,1.2-1.8,1.6c-0.8,0.4-1.6,0.6-2.4,0.6c-0.8,0-1.6-0.2-2.4-0.6
			c-0.8-0.4-1.4-0.9-1.8-1.6c-0.4-0.7-0.7-1.4-0.7-2.1c0-0.7,0.2-1.5,0.7-2.2c0.4-0.7,1-1.2,1.8-1.6
			C190.5,68.6,191.3,68.4,192.1,68.4L192.1,68.4z M192.1,69.1c-0.7,0-1.3,0.2-2,0.5c-0.7,0.3-1.2,0.8-1.5,1.3
			c-0.4,0.6-0.6,1.2-0.6,1.8c0,0.6,0.2,1.2,0.5,1.8c0.4,0.6,0.9,1,1.5,1.3c0.7,0.3,1.3,0.5,2,0.5c0.7,0,1.4-0.2,2-0.5
			c0.6-0.3,1.1-0.8,1.5-1.3c0.3-0.6,0.5-1.2,0.5-1.8c0-0.6-0.2-1.2-0.6-1.8c-0.4-0.6-0.9-1-1.5-1.3
			C193.5,69.3,192.8,69.1,192.1,69.1L192.1,69.1z M190,75.1c0.3,0,0.6,0,0.9,0c0-0.7,0-1.3,0-2c0.2,0,0.3,0,0.5,0
			c0.3,0,0.5,0.1,0.7,0.2c0.2,0.1,0.5,0.5,0.9,1.1c0.2,0.2,0.3,0.5,0.5,0.7c0.3,0,0.7,0,1,0c-0.2-0.3-0.4-0.6-0.6-0.9
			c-0.3-0.4-0.6-0.7-0.8-0.9c-0.1-0.1-0.3-0.2-0.4-0.2c0.5,0,0.8-0.2,1.1-0.4c0.3-0.2,0.4-0.5,0.4-0.9c0-0.2-0.1-0.5-0.3-0.7
			c-0.2-0.2-0.4-0.4-0.7-0.4c-0.3-0.1-0.7-0.1-1.3-0.1c-0.6,0-1.2,0-1.8,0C190,72,190,73.6,190,75.1L190,75.1z M190.9,72.5
			c0.3,0,0.7,0,1,0c0.5,0,0.8-0.1,1-0.2c0.2-0.1,0.3-0.3,0.3-0.5c0-0.1-0.1-0.3-0.1-0.4c-0.1-0.1-0.2-0.2-0.4-0.2
			c-0.2-0.1-0.4-0.1-0.9-0.1c-0.3,0-0.6,0-0.9,0C190.9,71.6,190.9,72,190.9,72.5z"/>
	</g>
	<g display="inline">
		<path fill-rule="evenodd" clip-rule="evenodd" fill="#1A4697" d="M14.1,99.8c8.2,0,14.9-6.7,14.9-14.9S22.3,70,14.1,70
			S-0.8,76.7-0.8,84.9S5.9,99.8,14.1,99.8z"/>
		<path fill-rule="evenodd" clip-rule="evenodd" fill="#ED6D05" d="M27.3,81.3c0,1.9-0.6,3.8-1.9,5.9c-1.7,2.7-4.1,4.8-7.3,6.3
			c-3,1.4-6.1,2.1-9.5,2.1H3.6L9,80h5.4L9.8,93.1c2,0,3.9-0.6,5.8-1.8c1.9-1.2,3.3-2.7,4.2-4.5c0.8-1.6,1.2-2.9,1.2-4
			c0-1.7-0.5-3-1.4-3.7c-0.9-0.7-2.2-1-4-1c-4.9,0-10,0-14.9,0c0.7-1.3,1.6-2.6,2.7-3.7l14.5-0.1c2.5,0,4.6,0.5,6.3,1.6
			C26.3,77.1,27.3,78.9,27.3,81.3z"/>
	</g>
</g>
<g>
	<path display="none" fill-rule="evenodd" clip-rule="evenodd" fill="#005FAA" d="M48.4,33.7c0.4-1.7,0.2-2.9-0.6-3.5
		c-0.8-0.6-2.4-0.9-4.8-0.9c-0.7,3-1.5,6-2.2,8.9c2.5,0,4.3-0.3,5.4-1C47.3,36.5,48,35.4,48.4,33.7L48.4,33.7z M15,18.4
		c8.2,0,14.9,6.7,14.9,14.9S23.2,48.2,15,48.2S0.1,41.6,0.1,33.3S6.8,18.4,15,18.4L15,18.4z M193.1,16.8c0.8,0,1.6,0.2,2.4,0.6
		c0.8,0.4,1.4,0.9,1.8,1.6c0.4,0.7,0.7,1.4,0.7,2.2c0,0.7-0.2,1.5-0.7,2.1c-0.4,0.7-1,1.2-1.8,1.6c-0.8,0.4-1.6,0.6-2.4,0.6
		c-0.8,0-1.6-0.2-2.4-0.6c-0.8-0.4-1.4-0.9-1.8-1.6c-0.4-0.7-0.7-1.4-0.7-2.1c0-0.7,0.2-1.5,0.7-2.2c0.4-0.7,1-1.2,1.8-1.6
		C191.5,17,192.3,16.8,193.1,16.8L193.1,16.8z M193.1,17.6c-0.7,0-1.3,0.2-2,0.5c-0.7,0.3-1.2,0.8-1.5,1.3c-0.4,0.6-0.6,1.2-0.6,1.8
		c0,0.6,0.2,1.2,0.5,1.8c0.4,0.6,0.9,1,1.5,1.3c0.7,0.3,1.3,0.5,2,0.5c0.7,0,1.4-0.2,2-0.5c0.6-0.3,1.1-0.8,1.5-1.3
		c0.3-0.6,0.5-1.2,0.5-1.8c0-0.6-0.2-1.2-0.6-1.8c-0.4-0.6-0.9-1-1.5-1.3C194.4,17.7,193.8,17.6,193.1,17.6L193.1,17.6z M191,23.5
		c0.3,0,0.6,0,0.9,0c0-0.7,0-1.3,0-2c0.2,0,0.3,0,0.5,0c0.3,0,0.5,0.1,0.7,0.2c0.2,0.1,0.5,0.5,0.9,1.1c0.2,0.2,0.3,0.5,0.5,0.7
		c0.3,0,0.7,0,1,0c-0.2-0.3-0.4-0.6-0.6-0.9c-0.3-0.4-0.6-0.7-0.8-0.9c-0.1-0.1-0.3-0.2-0.4-0.2c0.5,0,0.8-0.2,1.1-0.4
		c0.3-0.2,0.4-0.5,0.4-0.9c0-0.2-0.1-0.5-0.3-0.7c-0.2-0.2-0.4-0.4-0.7-0.4c-0.3-0.1-0.7-0.1-1.3-0.1c-0.6,0-1.2,0-1.8,0
		C191,20.4,191,22,191,23.5L191,23.5z M191.8,20.9c0.3,0,0.7,0,1,0c0.5,0,0.8-0.1,1-0.2c0.2-0.1,0.3-0.3,0.3-0.5
		c0-0.1-0.1-0.3-0.1-0.4c-0.1-0.1-0.2-0.2-0.4-0.2c-0.2-0.1-0.4-0.1-0.9-0.1c-0.3,0-0.6,0-0.9,0C191.8,20,191.8,20.5,191.8,20.9
		L191.8,20.9z M90.6,29.3c-0.3,1.1-0.6,2.2-0.8,3.3c0.9,0,1.9,0,2.8,0c1.1,0,2-0.1,2.6-0.4c0.6-0.2,1-0.7,1.2-1.2
		c0.1-0.6,0-1-0.5-1.3c-0.5-0.3-1.1-0.5-2-0.5C92.8,29.3,91.7,29.3,90.6,29.3L90.6,29.3z M91,36.3c-0.7,0-1.5,0-2.2,0
		c-0.5,1.9-1,3.9-1.5,5.8c-2.4,0-4.8,0-7.2,0c1.4-5.6,2.8-11.2,4.2-16.8c3.4,0,6.9,0,10.3,0c1.1,0,2.1,0,3,0.1
		c4,0.4,5.9,4.6,3.7,7.2c-0.8,0.6-1.8,1.3-2.9,1.6c1.3,0.4,2.1,0.8,2.4,1.2c0.5,0.6,0.6,1.7,0.2,3.3c-0.2,0.6-0.3,1.3-0.5,1.9
		c-0.1,0.7,0,1.1,0.5,1.1c-0.1,0.2-0.1,0.3-0.1,0.5c-2.4,0-4.8,0-7.3,0c-0.1-0.5,0-1.5,0.4-2.9c0.3-1.2,0.3-1.9-0.1-2.3
		C93.7,36.5,92.7,36.3,91,36.3L91,36.3z M113,30.2c-0.9-1.6-1.8-3.2-2.8-4.9c-2.3,0-4.5,0-6.8,0c2.3,3.5,4.6,7,6.9,10.5
		C111.2,34,112.1,32.1,113,30.2L113,30.2z M69,36.4c-0.3-2.1-0.5-4.1-0.8-6.2c-1.3,2.1-2.5,4.1-3.7,6.2C66,36.4,67.4,36.4,69,36.4
		L69,36.4z M60.9,42.1c-2.3,0-4.6,0-6.9,0c4-5.6,7.9-11.2,11.9-16.8c2.4,0,4.8,0,7.2,0c1.2,5.6,2.4,11.2,3.6,16.8
		c-2.4,0-4.7,0-7.1,0c-0.1-0.7-0.2-1.5-0.3-2.2c-2.4,0-4.7,0-7.1,0C61.8,40.7,61.3,41.4,60.9,42.1L60.9,42.1z M131.6,42.1
		c-2.2,0-4.5,0-6.7,0c1.3-5.6,2.6-11.2,4-16.8c2.2,0,4.5,0,6.7,0C134.2,31,132.9,36.6,131.6,42.1L131.6,42.1z M145.8,38.3
		c-0.5,0-1.1-0.1-1.7-0.4c-0.8-0.3-1.2-0.8-1.2-1.4c-2.4,0-4.7,0-7.1,0c-0.4,1.6,0.2,2.9,1.8,4c1.6,1.1,3.9,1.6,6.8,1.6
		c3.2,0,5.9-0.5,8-1.4c2.2-1,3.6-2.4,4.1-4.3c0.5-1.8-0.3-3.1-2.4-4c-0.9-0.4-2.8-0.9-5.9-1.5c-2.1-0.4-3.1-1-2.9-1.6
		c0.2-0.6,1-1,2.6-1c0.6,0,1.1,0.1,1.6,0.3c0.7,0.3,1,0.7,1,1.2c2.4,0,4.7,0,7,0c0.1-1.6-0.5-2.8-1.7-3.8c-1.4-1-3.6-1.5-6.6-1.5
		c-2.9,0-5.4,0.5-7.4,1.4c-2,0.9-3.3,2.2-3.7,4c-0.5,1.8,0.3,3.2,2.3,4.1c0.9,0.4,2.9,0.9,5.9,1.5c2.1,0.4,3.1,0.9,2.9,1.6
		c-0.1,0.4-0.5,0.7-1.1,0.9C147.5,38.2,146.7,38.3,145.8,38.3L145.8,38.3z M166.5,42.1c-2.4,0-4.7,0-7.1,0
		c1.4-5.6,2.8-11.2,4.1-16.8c2.4,0,4.7,0,7.1,0c-0.5,2-1,3.9-1.5,5.9c2.2,0,4.4,0,6.7,0c0.5-2,1-3.9,1.5-5.9c2.3,0,4.7,0,7.1,0
		c-1.4,5.6-2.8,11.2-4.1,16.7c-2.4,0-4.7,0-7.1,0c0.5-2.1,1-4.2,1.6-6.3c-2.3,0-4.5,0-6.7,0C167.6,38,167.1,40,166.5,42.1
		L166.5,42.1z M42,42.1c-3.1,0-6.1,0-9.2,0c1.4-5.6,2.7-11.2,4.1-16.8c3.1,0,6.2,0,9.4,0c3.6,0,6.1,0.7,7.7,1.9
		c1.7,1.4,2.2,3.4,1.5,6.1c-0.8,3-2.3,5.3-4.7,6.7C48.5,41.5,45.6,42.1,42,42.1z"/>
	<path fill-rule="evenodd" clip-rule="evenodd" fill="#FFFFFF" d="M48.4,33.7c0.4-1.7,0.2-2.9-0.6-3.5c-0.8-0.6-2.4-0.9-4.8-0.9
		c-0.7,3-1.5,6-2.2,8.9c2.5,0,4.3-0.3,5.4-1C47.3,36.5,48,35.4,48.4,33.7L48.4,33.7z M193.1,16.8c0.8,0,1.6,0.2,2.4,0.6
		c0.8,0.4,1.4,0.9,1.8,1.6c0.4,0.7,0.7,1.4,0.7,2.2c0,0.7-0.2,1.5-0.7,2.1c-0.4,0.7-1,1.2-1.8,1.6c-0.8,0.4-1.6,0.6-2.4,0.6
		c-0.8,0-1.6-0.2-2.4-0.6c-0.8-0.4-1.4-0.9-1.8-1.6c-0.4-0.7-0.7-1.4-0.7-2.1c0-0.7,0.2-1.5,0.7-2.2c0.4-0.7,1-1.2,1.8-1.6
		C191.5,17,192.3,16.8,193.1,16.8L193.1,16.8z M193.1,17.6c-0.7,0-1.3,0.2-2,0.5c-0.7,0.3-1.2,0.8-1.5,1.3c-0.4,0.6-0.6,1.2-0.6,1.8
		c0,0.6,0.2,1.2,0.5,1.8c0.4,0.6,0.9,1,1.5,1.3c0.7,0.3,1.3,0.5,2,0.5c0.7,0,1.4-0.2,2-0.5c0.6-0.3,1.1-0.8,1.5-1.3
		c0.3-0.6,0.5-1.2,0.5-1.8c0-0.6-0.2-1.2-0.6-1.8c-0.4-0.6-0.9-1-1.5-1.3C194.4,17.7,193.8,17.6,193.1,17.6L193.1,17.6z M191,23.5
		c0.3,0,0.6,0,0.9,0c0-0.7,0-1.3,0-2c0.2,0,0.3,0,0.5,0c0.3,0,0.5,0.1,0.7,0.2c0.2,0.1,0.5,0.5,0.9,1.1c0.2,0.2,0.3,0.5,0.5,0.7
		c0.3,0,0.7,0,1,0c-0.2-0.3-0.4-0.6-0.6-0.9c-0.3-0.4-0.6-0.7-0.8-0.9c-0.1-0.1-0.3-0.2-0.4-0.2c0.5,0,0.8-0.2,1.1-0.4
		c0.3-0.2,0.4-0.5,0.4-0.9c0-0.2-0.1-0.5-0.3-0.7c-0.2-0.2-0.4-0.4-0.7-0.4c-0.3-0.1-0.7-0.1-1.3-0.1c-0.6,0-1.2,0-1.8,0
		C191,20.4,191,22,191,23.5L191,23.5z M191.8,20.9c0.3,0,0.7,0,1,0c0.5,0,0.8-0.1,1-0.2c0.2-0.1,0.3-0.3,0.3-0.5
		c0-0.1-0.1-0.3-0.1-0.4c-0.1-0.1-0.2-0.2-0.4-0.2c-0.2-0.1-0.4-0.1-0.9-0.1c-0.3,0-0.6,0-0.9,0C191.8,20,191.8,20.5,191.8,20.9
		L191.8,20.9z M90.6,29.3c-0.3,1.1-0.6,2.2-0.8,3.3c0.9,0,1.9,0,2.8,0c1.1,0,2-0.1,2.6-0.4c0.6-0.2,1-0.7,1.2-1.2
		c0.1-0.6,0-1-0.5-1.3c-0.5-0.3-1.1-0.5-2-0.5C92.8,29.3,91.7,29.3,90.6,29.3L90.6,29.3z M91,36.3c-0.7,0-1.5,0-2.2,0
		c-0.5,1.9-1,3.9-1.5,5.8c-2.4,0-4.8,0-7.2,0c1.4-5.6,2.8-11.2,4.2-16.8c3.4,0,6.9,0,10.3,0c1.1,0,2.1,0,3,0.1
		c4,0.4,5.9,4.6,3.7,7.2c-0.8,0.6-1.8,1.3-2.9,1.6c1.3,0.4,2.1,0.8,2.4,1.2c0.5,0.6,0.6,1.7,0.2,3.3c-0.2,0.6-0.3,1.3-0.5,1.9
		c-0.1,0.7,0,1.1,0.5,1.1c-0.1,0.2-0.1,0.3-0.1,0.5c-2.4,0-4.8,0-7.3,0c-0.1-0.5,0-1.5,0.4-2.9c0.3-1.2,0.3-1.9-0.1-2.3
		C93.7,36.5,92.7,36.3,91,36.3L91,36.3z M113,30.2c-0.9-1.6-1.8-3.2-2.8-4.9c-2.3,0-4.5,0-6.8,0c2.3,3.5,4.6,7,6.9,10.5
		C111.2,34,112.1,32.1,113,30.2L113,30.2z M69,36.4c-0.3-2.1-0.5-4.1-0.8-6.2c-1.3,2.1-2.5,4.1-3.7,6.2C66,36.4,67.4,36.4,69,36.4
		L69,36.4z M60.9,42.1c-2.3,0-4.6,0-6.9,0c4-5.6,7.9-11.2,11.9-16.8c2.4,0,4.8,0,7.2,0c1.2,5.6,2.4,11.2,3.6,16.8
		c-2.4,0-4.7,0-7.1,0c-0.1-0.7-0.2-1.5-0.3-2.2c-2.4,0-4.7,0-7.1,0C61.8,40.7,61.3,41.4,60.9,42.1L60.9,42.1z M131.6,42.1
		c-2.2,0-4.5,0-6.7,0c1.3-5.6,2.6-11.2,4-16.8c2.2,0,4.5,0,6.7,0C134.2,31,132.9,36.6,131.6,42.1L131.6,42.1z M145.8,38.3
		c-0.5,0-1.1-0.1-1.7-0.4c-0.8-0.3-1.2-0.8-1.2-1.4c-2.4,0-4.7,0-7.1,0c-0.4,1.6,0.2,2.9,1.8,4c1.6,1.1,3.9,1.6,6.8,1.6
		c3.2,0,5.9-0.5,8-1.4c2.2-1,3.6-2.4,4.1-4.3c0.5-1.8-0.3-3.1-2.4-4c-0.9-0.4-2.8-0.9-5.9-1.5c-2.1-0.4-3.1-1-2.9-1.6
		c0.2-0.6,1-1,2.6-1c0.6,0,1.1,0.1,1.6,0.3c0.7,0.3,1,0.7,1,1.2c2.4,0,4.7,0,7,0c0.1-1.6-0.5-2.8-1.7-3.8c-1.4-1-3.6-1.5-6.6-1.5
		c-2.9,0-5.4,0.5-7.4,1.4c-2,0.9-3.3,2.2-3.7,4c-0.5,1.8,0.3,3.2,2.3,4.1c0.9,0.4,2.9,0.9,5.9,1.5c2.1,0.4,3.1,0.9,2.9,1.6
		c-0.1,0.4-0.5,0.7-1.1,0.9C147.5,38.2,146.7,38.3,145.8,38.3L145.8,38.3z M166.5,42.1c-2.4,0-4.7,0-7.1,0
		c1.4-5.6,2.8-11.2,4.1-16.8c2.4,0,4.7,0,7.1,0c-0.5,2-1,3.9-1.5,5.9c2.2,0,4.4,0,6.7,0c0.5-2,1-3.9,1.5-5.9c2.3,0,4.7,0,7.1,0
		c-1.4,5.6-2.8,11.2-4.1,16.7c-2.4,0-4.7,0-7.1,0c0.5-2.1,1-4.2,1.6-6.3c-2.3,0-4.5,0-6.7,0C167.6,38,167.1,40,166.5,42.1
		L166.5,42.1z M42,42.1c-3.1,0-6.1,0-9.2,0c1.4-5.6,2.7-11.2,4.1-16.8c3.1,0,6.2,0,9.4,0c3.6,0,6.1,0.7,7.7,1.9
		c1.7,1.4,2.2,3.4,1.5,6.1c-0.8,3-2.3,5.3-4.7,6.7C48.5,41.5,45.6,42.1,42,42.1z"/>
	<path fill-rule="evenodd" clip-rule="evenodd" fill="#ED8901" d="M15,18.4c8.2,0,14.9,6.7,14.9,14.9S23.2,48.2,15,48.2
		S0.1,41.6,0.1,33.3S6.8,18.4,15,18.4L15,18.4z"/>
	<path fill-rule="evenodd" clip-rule="evenodd" fill="#075FAA" d="M28.2,29.7c0,1.9-0.6,3.8-1.9,5.9c-1.7,2.7-4.1,4.8-7.3,6.3
		c-3,1.4-6.1,2.1-9.5,2.1H4.5L10,28.4h5.4l-4.6,13.1c2,0,3.9-0.6,5.8-1.8c1.9-1.2,3.3-2.7,4.2-4.5c0.8-1.6,1.2-2.9,1.2-4
		c0-1.7-0.5-3-1.4-3.7c-0.9-0.7-2.2-1-4-1c-4.9,0-10,0-14.9,0c0.7-1.3,1.6-2.6,2.7-3.7L19,22.7c2.5,0,4.6,0.5,6.3,1.6
		C27.2,25.5,28.2,27.4,28.2,29.7z"/>
	<path fill-rule="evenodd" clip-rule="evenodd" fill="#EE8A00" d="M101.7,54.1c5-9,9.9-18,14.9-27c5-9,9.9-18,14.9-27.1
		c-2.2,12.7-4.4,21.8-6.7,28.6c-2.3,6.8-4.7,11.1-7.4,14.2C109.1,52,104.3,52.4,101.7,54.1L101.7,54.1z"/>
</g>
<rect x="230.7" y="-1.4" display="none" fill-rule="evenodd" clip-rule="evenodd" fill="#EE8A00" width="56.7" height="56.7"/>
<rect x="290.7" y="-1.4" display="none" fill-rule="evenodd" clip-rule="evenodd" fill="#005FAA" width="56.7" height="56.7"/>
</svg>
