<?xml version="1.0" encoding="utf-8"?>
<!-- Generator: Adobe Illustrator 18.1.0, SVG Export Plug-In . SVG Version: 6.00 Build 0)  -->
<svg version="1.1" id="Слой_1" xmlns="http://www.w3.org/2000/svg" xmlns:xlink="http://www.w3.org/1999/xlink" x="0px" y="0px"
	 viewBox="0 0 197.9 54.1" enable-background="new 0 0 197.9 54.1" xml:space="preserve">
<g>
	<path fill-rule="evenodd" clip-rule="evenodd" fill="#005FAA" d="M48.4,33.7c0.4-1.7,0.2-2.9-0.6-3.5c-0.8-0.6-2.4-0.9-4.8-0.9
		c-0.7,3-1.5,6-2.2,8.9c2.5,0,4.3-0.3,5.4-1C47.3,36.5,48,35.4,48.4,33.7L48.4,33.7z M15,18.4c8.2,0,14.9,6.7,14.9,14.9
		S23.2,48.2,15,48.2S0.1,41.6,0.1,33.3S6.8,18.4,15,18.4L15,18.4z M193.1,16.8c0.8,0,1.6,0.2,2.4,0.6c0.8,0.4,1.4,0.9,1.8,1.6
		c0.4,0.7,0.7,1.4,0.7,2.2c0,0.7-0.2,1.5-0.7,2.1c-0.4,0.7-1,1.2-1.8,1.6c-0.8,0.4-1.6,0.6-2.4,0.6c-0.8,0-1.6-0.2-2.4-0.6
		c-0.8-0.4-1.4-0.9-1.8-1.6c-0.4-0.7-0.7-1.4-0.7-2.1c0-0.7,0.2-1.5,0.7-2.2c0.4-0.7,1-1.2,1.8-1.6C191.5,17,192.3,16.8,193.1,16.8
		L193.1,16.8z M193.1,17.6c-0.7,0-1.3,0.2-2,0.5c-0.7,0.3-1.2,0.8-1.5,1.3c-0.4,0.6-0.6,1.2-0.6,1.8c0,0.6,0.2,1.2,0.5,1.8
		c0.4,0.6,0.9,1,1.5,1.3c0.7,0.3,1.3,0.5,2,0.5c0.7,0,1.4-0.2,2-0.5c0.6-0.3,1.1-0.8,1.5-1.3c0.3-0.6,0.5-1.2,0.5-1.8
		c0-0.6-0.2-1.2-0.6-1.8c-0.4-0.6-0.9-1-1.5-1.3C194.4,17.7,193.8,17.6,193.1,17.6L193.1,17.6z M190.9,23.5c0.3,0,0.6,0,0.9,0
		c0-0.7,0-1.3,0-2c0.2,0,0.3,0,0.5,0c0.3,0,0.5,0.1,0.7,0.2c0.2,0.1,0.5,0.5,0.9,1.1c0.2,0.2,0.3,0.5,0.5,0.7c0.3,0,0.7,0,1,0
		c-0.2-0.3-0.4-0.6-0.6-0.9c-0.3-0.4-0.6-0.7-0.8-0.9c-0.1-0.1-0.3-0.2-0.4-0.2c0.5,0,0.8-0.2,1.1-0.4c0.3-0.2,0.4-0.5,0.4-0.9
		c0-0.2-0.1-0.5-0.3-0.7c-0.2-0.2-0.4-0.4-0.7-0.4c-0.3-0.1-0.7-0.1-1.3-0.1c-0.6,0-1.2,0-1.8,0C190.9,20.4,190.9,22,190.9,23.5
		L190.9,23.5z M191.8,20.9c0.3,0,0.7,0,1,0c0.5,0,0.8-0.1,1-0.2c0.2-0.1,0.3-0.3,0.3-0.5c0-0.1-0.1-0.3-0.1-0.4
		c-0.1-0.1-0.2-0.2-0.4-0.2c-0.2-0.1-0.4-0.1-0.9-0.1c-0.3,0-0.6,0-0.9,0C191.8,20,191.8,20.5,191.8,20.9L191.8,20.9z M90.6,29.3
		c-0.3,1.1-0.6,2.2-0.8,3.3c0.9,0,1.9,0,2.8,0c1.1,0,2-0.1,2.6-0.4c0.6-0.2,1-0.7,1.2-1.2c0.1-0.6,0-1-0.5-1.3
		c-0.5-0.3-1.1-0.5-2-0.5C92.8,29.3,91.7,29.3,90.6,29.3L90.6,29.3z M91,36.3c-0.7,0-1.5,0-2.2,0c-0.5,1.9-1,3.9-1.5,5.8
		c-2.4,0-4.8,0-7.2,0c1.4-5.6,2.8-11.2,4.2-16.8c3.4,0,6.9,0,10.3,0c1.1,0,2.1,0,3,0.1c4,0.4,5.9,4.6,3.7,7.2
		c-0.8,0.6-1.8,1.3-2.9,1.6c1.3,0.4,2.1,0.8,2.4,1.2c0.5,0.6,0.6,1.7,0.2,3.3c-0.2,0.6-0.3,1.3-0.5,1.9c-0.1,0.7,0,1.1,0.5,1.1
		c-0.1,0.2-0.1,0.3-0.1,0.5c-2.4,0-4.8,0-7.3,0c-0.1-0.5,0-1.5,0.4-2.9c0.3-1.2,0.3-1.9-0.1-2.3C93.7,36.5,92.7,36.3,91,36.3
		L91,36.3z M113,30.2c-0.9-1.6-1.8-3.2-2.8-4.9c-2.3,0-4.5,0-6.8,0c2.3,3.5,4.6,7,6.9,10.5C111.2,34,112.1,32.1,113,30.2L113,30.2z
		 M68.9,36.4c-0.3-2.1-0.5-4.1-0.8-6.2c-1.3,2.1-2.5,4.1-3.7,6.2C65.9,36.4,67.4,36.4,68.9,36.4L68.9,36.4z M60.9,42.1
		c-2.3,0-4.6,0-6.9,0c4-5.6,7.9-11.2,11.9-16.8c2.4,0,4.8,0,7.2,0c1.2,5.6,2.4,11.2,3.6,16.8c-2.4,0-4.7,0-7.1,0
		c-0.1-0.7-0.2-1.5-0.3-2.2c-2.4,0-4.7,0-7.1,0C61.8,40.7,61.3,41.4,60.9,42.1L60.9,42.1z M131.5,42.1c-2.2,0-4.5,0-6.7,0
		c1.3-5.6,2.6-11.2,4-16.8c2.2,0,4.5,0,6.7,0C134.2,31,132.8,36.6,131.5,42.1L131.5,42.1z M145.8,38.3c-0.5,0-1.1-0.1-1.7-0.4
		c-0.8-0.3-1.2-0.8-1.2-1.4c-2.4,0-4.7,0-7.1,0c-0.4,1.6,0.2,2.9,1.8,4c1.6,1.1,3.9,1.6,6.8,1.6c3.2,0,5.9-0.5,8-1.4
		c2.2-1,3.6-2.4,4.1-4.3c0.5-1.8-0.3-3.1-2.4-4c-0.9-0.4-2.8-0.9-5.9-1.5c-2.1-0.4-3.1-1-2.9-1.6c0.2-0.6,1-1,2.6-1
		c0.6,0,1.1,0.1,1.6,0.3c0.7,0.3,1,0.7,1,1.2c2.4,0,4.7,0,7,0c0.1-1.6-0.5-2.8-1.7-3.8c-1.4-1-3.6-1.5-6.6-1.5
		c-2.9,0-5.4,0.5-7.4,1.4c-2,0.9-3.3,2.2-3.7,4c-0.5,1.8,0.3,3.2,2.3,4.1c0.9,0.4,2.9,0.9,5.9,1.5c2.1,0.4,3.1,0.9,2.9,1.6
		c-0.1,0.4-0.5,0.7-1.1,0.9C147.5,38.2,146.7,38.3,145.8,38.3L145.8,38.3z M166.5,42.1c-2.4,0-4.7,0-7.1,0
		c1.4-5.6,2.8-11.2,4.1-16.8c2.4,0,4.7,0,7.1,0c-0.5,2-1,3.9-1.5,5.9c2.2,0,4.4,0,6.7,0c0.5-2,1-3.9,1.5-5.9c2.3,0,4.7,0,7.1,0
		c-1.4,5.6-2.8,11.2-4.1,16.7c-2.4,0-4.7,0-7.1,0c0.5-2.1,1-4.2,1.6-6.3c-2.3,0-4.5,0-6.7,0C167.6,38,167,40,166.5,42.1L166.5,42.1z
		 M42,42.1c-3.1,0-6.1,0-9.2,0c1.4-5.6,2.7-11.2,4.1-16.8c3.1,0,6.2,0,9.4,0c3.6,0,6.1,0.7,7.7,1.9c1.7,1.4,2.2,3.4,1.5,6.1
		c-0.8,3-2.3,5.3-4.7,6.7C48.5,41.5,45.6,42.1,42,42.1z"/>
	<path fill-rule="evenodd" clip-rule="evenodd" fill="#EE8A00" d="M101.6,54.1c5-9,9.9-18,14.9-27c5-9,9.9-18,14.9-27.1
		c-2.2,12.7-4.4,21.8-6.7,28.6c-2.3,6.8-4.7,11.1-7.4,14.2C109.1,52,104.3,52.4,101.6,54.1L101.6,54.1z M28.2,29.7
		c0,1.9-0.6,3.8-1.9,5.9c-1.7,2.7-4.1,4.8-7.3,6.3c-3,1.4-6.1,2.1-9.5,2.1H4.5L10,28.4h5.4l-4.6,13.1c2,0,3.9-0.6,5.8-1.8
		c1.9-1.2,3.3-2.7,4.2-4.5c0.8-1.6,1.2-2.9,1.2-4c0-1.7-0.5-3-1.4-3.7c-0.9-0.7-2.2-1-4-1c-4.9,0-10,0-14.9,0
		c0.7-1.3,1.6-2.6,2.7-3.7L19,22.7c2.5,0,4.6,0.5,6.3,1.6C27.2,25.5,28.2,27.4,28.2,29.7z"/>
</g>
</svg>
