<svg viewBox="0 0 22 22" xmlns="http://www.w3.org/2000/svg"><path fill="#f28d1e" id="search" d="m13.87156,15.59377c-1.38986,0.99036 -3.09046,1.57288 -4.92711,1.57288c-4.69442,0 -8.5,-3.80557 -8.5,-8.49998c0,-4.69442 3.80558,-8.5 8.5,-8.5c4.69441,0 8.49998,3.80558 8.49998,8.5c0,1.83665 -0.58252,3.53724 -1.57288,4.92711l5.5848,5.58479c0.5502,0.5502 0.54561,1.43055 -0.0002,1.97636l-0.02344,0.02344c-0.54442,0.54442 -1.43066,0.5459 -1.97636,0.0002l-5.58479,-5.5848l0,0zm-4.92711,-0.42712c3.58984,0 6.49998,-2.91014 6.49998,-6.49998c0,-3.58985 -2.91014,-6.5 -6.49998,-6.5c-3.58985,0 -6.5,2.91015 -6.5,6.5c0,3.58984 2.91015,6.49998 6.5,6.49998l0,0z"/></svg>